<svg width="24" height="23" viewBox="0 0 24 23" fill="none" xmlns="http://www.w3.org/2000/svg">
<path d="M18.0894 6.80532C18.0894 3.36503 15.302 0.577637 11.8617 0.577637C8.42145 0.577637 5.63406 3.36503 5.63406 6.80532C5.63406 8.88456 6.65359 10.7277 8.22056 11.8578C8.21051 11.8628 8.20298 11.8653 8.19796 11.8678C7.07547 12.3424 6.06849 13.0229 5.20214 13.8918C4.34079 14.7516 3.65505 15.7708 3.18317 16.8926C2.71889 17.9912 2.46832 19.1682 2.44489 20.3606C2.44422 20.3874 2.44892 20.414 2.45871 20.439C2.46851 20.4639 2.4832 20.4867 2.50192 20.5059C2.52064 20.5251 2.54302 20.5403 2.56772 20.5507C2.59243 20.5611 2.61897 20.5665 2.64578 20.5665H4.14997C4.25795 20.5665 4.34835 20.4786 4.35086 20.3706C4.40108 18.432 5.17703 16.6164 6.55064 15.2403C7.96944 13.8165 9.85281 13.033 11.8617 13.033C15.302 13.033 18.0894 10.2456 18.0894 6.80532ZM11.8617 11.1245C9.47614 11.1245 7.54254 9.19092 7.54254 6.80532C7.54254 4.41971 9.47614 2.48612 11.8617 2.48612C14.2473 2.48612 16.1809 4.41971 16.1809 6.80532C16.1809 9.19092 14.2473 11.1245 11.8617 11.1245ZM14.4985 16.6742H21.1279C21.2384 16.6742 21.3288 16.5838 21.3288 16.4733V15.067C21.3288 14.9565 21.2384 14.8661 21.1279 14.8661H16.6957L17.881 13.3569C17.9083 13.3217 17.9233 13.2785 17.9237 13.2339C17.9237 13.1234 17.8333 13.033 17.7228 13.033H15.8997C15.7766 13.033 15.6611 13.0907 15.5833 13.1862L13.8631 15.3734C13.7526 15.514 13.6924 15.6898 13.6924 15.8706C13.6949 16.3151 14.054 16.6742 14.4985 16.6742V16.6742ZM20.5252 18.2813H13.8958C13.7853 18.2813 13.6949 18.3717 13.6949 18.4822V19.8885C13.6949 19.999 13.7853 20.0894 13.8958 20.0894H18.328L17.1427 21.5986C17.1154 21.6338 17.1004 21.677 17.1 21.7216C17.1 21.8321 17.1904 21.9225 17.3009 21.9225H19.124C19.2471 21.9225 19.3626 21.8647 19.4404 21.7693L21.1606 19.5821C21.2711 19.4415 21.3313 19.2657 21.3313 19.0849C21.3288 18.6404 20.9697 18.2813 20.5252 18.2813V18.2813Z" fill="white"/>
</svg>
